<svg width="1200" height="820" viewBox="0 0 1200 820" fill="none" xmlns="http://www.w3.org/2000/svg">
  <defs>
    <linearGradient id="warm" x1="120" y1="70" x2="1030" y2="760" gradientUnits="userSpaceOnUse">
      <stop stop-color="#F43F5E"/>
      <stop offset="1" stop-color="#F59E0B"/>
    </linearGradient>
    <linearGradient id="cool" x1="220" y1="120" x2="1000" y2="700" gradientUnits="userSpaceOnUse">
      <stop stop-color="#0EA5E9"/>
      <stop offset="1" stop-color="#8B5CF6"/>
    </linearGradient>
    <filter id="shadow" x="-40" y="-40" width="1280" height="900" filterUnits="userSpaceOnUse" color-interpolation-filters="sRGB">
      <feDropShadow dx="0" dy="24" stdDeviation="28" flood-color="#0F172A" flood-opacity="0.14"/>
    </filter>
    <filter id="softShadow" x="-40" y="-40" width="1280" height="900" filterUnits="userSpaceOnUse" color-interpolation-filters="sRGB">
      <feDropShadow dx="0" dy="12" stdDeviation="18" flood-color="#0F172A" flood-opacity="0.10"/>
    </filter>
  </defs>

  <rect width="1200" height="820" rx="54" fill="#F8FAFC"/>
  <circle cx="980" cy="130" r="180" fill="#0EA5E9" fill-opacity="0.10"/>
  <circle cx="120" cy="700" r="220" fill="#F43F5E" fill-opacity="0.08"/>
  <circle cx="615" cy="420" r="320" fill="#0EA5E9" fill-opacity="0.04"/>

  <g filter="url(#shadow)">
    <rect x="120" y="105" width="960" height="610" rx="40" fill="white"/>
  </g>

  <rect x="120" y="105" width="960" height="12" rx="6" fill="url(#warm)"/>

  <g opacity="0.5">
    <line x1="185" y1="210" x2="1015" y2="210" stroke="#E2E8F0" stroke-width="2"/>
    <line x1="185" y1="310" x2="1015" y2="310" stroke="#E2E8F0" stroke-width="2"/>
    <line x1="185" y1="410" x2="1015" y2="410" stroke="#E2E8F0" stroke-width="2"/>
    <line x1="185" y1="510" x2="1015" y2="510" stroke="#E2E8F0" stroke-width="2"/>
    <line x1="185" y1="610" x2="1015" y2="610" stroke="#E2E8F0" stroke-width="2"/>
  </g>

  <g filter="url(#softShadow)">
    <rect x="195" y="170" width="300" height="390" rx="34" fill="#0F172A"/>
    <rect x="215" y="195" width="260" height="340" rx="26" fill="#F8FAFC"/>
    <rect x="242" y="225" width="206" height="38" rx="19" fill="#E0F2FE"/>
    <text x="345" y="250" text-anchor="middle" fill="#0284C7" font-family="Inter, Arial, sans-serif" font-size="20" font-weight="700">AKURA</text>

    <rect x="245" y="292" width="78" height="78" rx="22" fill="#0EA5E9" fill-opacity="0.13"/>
    <text x="284" y="343" text-anchor="middle" fill="#0284C7" font-family="Noto Sans Sinhala, Inter, Arial, sans-serif" font-size="44" font-weight="800">අ</text>

    <rect x="343" y="292" width="78" height="78" rx="22" fill="#F43F5E" fill-opacity="0.12"/>
    <path d="M382 325c16 0 27 10 27 24 0 12-9 22-21 24l-6 10-6-10c-13-2-22-12-22-24 0-14 12-24 28-24Z" fill="#F43F5E" fill-opacity="0.9"/>
    <circle cx="374" cy="348" r="3" fill="white"/>
    <circle cx="390" cy="348" r="3" fill="white"/>

    <rect x="245" y="390" width="176" height="20" rx="10" fill="#E2E8F0"/>
    <rect x="245" y="424" width="130" height="16" rx="8" fill="#CBD5E1"/>
    <rect x="245" y="455" width="176" height="46" rx="18" fill="url(#warm)"/>
    <text x="333" y="485" text-anchor="middle" fill="white" font-family="Inter, Arial, sans-serif" font-size="17" font-weight="700">Start Learning</text>
  </g>

  <g filter="url(#softShadow)">
    <rect x="560" y="165" width="410" height="92" rx="28" fill="white" stroke="#E2E8F0"/>
    <circle cx="612" cy="211" r="27" fill="#0EA5E9" fill-opacity="0.12"/>
    <path d="M603 211h18M612 202v18" stroke="#0EA5E9" stroke-width="5" stroke-linecap="round"/>
    <text x="658" y="203" fill="#0F172A" font-family="Inter, Arial, sans-serif" font-size="22" font-weight="800">Timely Feedback</text>
    <text x="658" y="231" fill="#64748B" font-family="Inter, Arial, sans-serif" font-size="16">Immediate correction during learning</text>
  </g>

  <g filter="url(#softShadow)">
    <rect x="620" y="292" width="410" height="92" rx="28" fill="white" stroke="#E2E8F0"/>
    <circle cx="672" cy="338" r="27" fill="#F43F5E" fill-opacity="0.12"/>
    <path d="M660 340c8-14 24-14 32 0" stroke="#F43F5E" stroke-width="5" stroke-linecap="round"/>
    <circle cx="663" cy="327" r="4" fill="#F43F5E"/>
    <circle cx="689" cy="327" r="4" fill="#F43F5E"/>
    <text x="718" y="330" fill="#0F172A" font-family="Inter, Arial, sans-serif" font-size="22" font-weight="800">Emotion-Aware Learning</text>
    <text x="718" y="358" fill="#64748B" font-family="Inter, Arial, sans-serif" font-size="16">Adapts to learner engagement</text>
  </g>

  <g filter="url(#softShadow)">
    <rect x="560" y="419" width="410" height="92" rx="28" fill="white" stroke="#E2E8F0"/>
    <circle cx="612" cy="465" r="27" fill="#F59E0B" fill-opacity="0.13"/>
    <path d="M604 474v-25M613 474v-32M622 474v-20" stroke="#F59E0B" stroke-width="6" stroke-linecap="round"/>
    <text x="658" y="457" fill="#0F172A" font-family="Inter, Arial, sans-serif" font-size="22" font-weight="800">Gesture Numeracy</text>
    <text x="658" y="485" fill="#64748B" font-family="Inter, Arial, sans-serif" font-size="16">Finger-count interaction for numbers</text>
  </g>

  <g filter="url(#softShadow)">
    <rect x="620" y="546" width="410" height="92" rx="28" fill="white" stroke="#E2E8F0"/>
    <circle cx="672" cy="592" r="27" fill="#10B981" fill-opacity="0.13"/>
    <path d="M660 592c10-20 24-20 34 0M656 604c12-9 30-9 42 0" stroke="#10B981" stroke-width="5" stroke-linecap="round"/>
    <text x="718" y="584" fill="#0F172A" font-family="Inter, Arial, sans-serif" font-size="22" font-weight="800">Sinhala Pronunciation</text>
    <text x="718" y="612" fill="#64748B" font-family="Inter, Arial, sans-serif" font-size="16">Speech feedback for young learners</text>
  </g>

  <path d="M500 350C555 340 565 260 610 225" stroke="#CBD5E1" stroke-width="4" stroke-linecap="round" stroke-dasharray="12 12"/>
  <path d="M500 380C565 385 580 330 620 335" stroke="#CBD5E1" stroke-width="4" stroke-linecap="round" stroke-dasharray="12 12"/>
  <path d="M500 430C555 425 570 455 560 465" stroke="#CBD5E1" stroke-width="4" stroke-linecap="round" stroke-dasharray="12 12"/>
  <path d="M500 465C570 500 585 585 620 592" stroke="#CBD5E1" stroke-width="4" stroke-linecap="round" stroke-dasharray="12 12"/>

  <g>
    <rect x="205" y="600" width="180" height="58" rx="22" fill="#0EA5E9" fill-opacity="0.10"/>
    <text x="295" y="625" text-anchor="middle" fill="#0284C7" font-family="Inter, Arial, sans-serif" font-size="15" font-weight="700">On-device</text>
    <text x="295" y="646" text-anchor="middle" fill="#64748B" font-family="Inter, Arial, sans-serif" font-size="13">privacy-first design</text>

    <rect x="405" y="600" width="180" height="58" rx="22" fill="#F43F5E" fill-opacity="0.10"/>
    <text x="495" y="625" text-anchor="middle" fill="#E11D48" font-family="Inter, Arial, sans-serif" font-size="15" font-weight="700">Multimodal</text>
    <text x="495" y="646" text-anchor="middle" fill="#64748B" font-family="Inter, Arial, sans-serif" font-size="13">four learning signals</text>
  </g>
</svg>
