<svg width="720" height="540" viewBox="0 0 720 540" fill="none" xmlns="http://www.w3.org/2000/svg">
  <defs>
    <linearGradient id="warm" x1="120" y1="70" x2="600" y2="470" gradientUnits="userSpaceOnUse">
      <stop stop-color="#F43F5E"/>
      <stop offset="1" stop-color="#F59E0B"/>
    </linearGradient>
    <linearGradient id="cool" x1="90" y1="80" x2="560" y2="440" gradientUnits="userSpaceOnUse">
      <stop stop-color="#0EA5E9"/>
      <stop offset="1" stop-color="#8B5CF6"/>
    </linearGradient>
    <filter id="shadow" x="-80" y="-80" width="880" height="700" filterUnits="userSpaceOnUse" color-interpolation-filters="sRGB">
      <feDropShadow dx="0" dy="20" stdDeviation="26" flood-color="#0F172A" flood-opacity="0.13"/>
    </filter>
    <filter id="softShadow" x="-60" y="-60" width="840" height="660" filterUnits="userSpaceOnUse" color-interpolation-filters="sRGB">
      <feDropShadow dx="0" dy="12" stdDeviation="18" flood-color="#0F172A" flood-opacity="0.10"/>
    </filter>
  </defs>

  <rect width="720" height="540" rx="44" fill="#F8FAFC"/>
  <circle cx="585" cy="90" r="105" fill="#0EA5E9" fill-opacity="0.10"/>
  <circle cx="110" cy="470" r="150" fill="#F43F5E" fill-opacity="0.08"/>
  <circle cx="370" cy="260" r="220" fill="#0EA5E9" fill-opacity="0.04"/>

  <g filter="url(#shadow)">
    <rect x="188" y="58" width="272" height="424" rx="38" fill="#0F172A"/>
    <rect x="208" y="88" width="232" height="356" rx="28" fill="white"/>
    <rect x="245" y="113" width="158" height="34" rx="17" fill="#E0F2FE"/>
    <text x="324" y="136" text-anchor="middle" fill="#0284C7" font-family="Inter, Arial, sans-serif" font-size="17" font-weight="800">AKURA</text>

    <rect x="238" y="177" width="70" height="70" rx="22" fill="#0EA5E9" fill-opacity="0.12"/>
    <text x="273" y="223" text-anchor="middle" fill="#0284C7" font-family="Noto Sans Sinhala, Inter, Arial, sans-serif" font-size="42" font-weight="900">අ</text>

    <rect x="340" y="177" width="70" height="70" rx="22" fill="#F43F5E" fill-opacity="0.12"/>
    <path d="M375 199c16 0 27 10 27 24 0 12-9 22-21 24l-6 10-6-10c-12-2-21-12-21-24 0-14 11-24 27-24Z" fill="#F43F5E"/>
    <circle cx="367" cy="221" r="3" fill="white"/>
    <circle cx="383" cy="221" r="3" fill="white"/>

    <rect x="238" y="278" width="172" height="18" rx="9" fill="#E2E8F0"/>
    <rect x="238" y="311" width="132" height="14" rx="7" fill="#CBD5E1"/>
    <rect x="238" y="344" width="172" height="46" rx="18" fill="url(#warm)"/>
    <text x="324" y="373" text-anchor="middle" fill="white" font-family="Inter, Arial, sans-serif" font-size="16" font-weight="800">Start Learning</text>
  </g>

  <g filter="url(#softShadow)">
    <rect x="72" y="122" width="150" height="78" rx="24" fill="white" stroke="#E2E8F0"/>
    <circle cx="111" cy="161" r="23" fill="#0EA5E9" fill-opacity="0.12"/>
    <path d="M101 162h20M111 152v20" stroke="#0EA5E9" stroke-width="5" stroke-linecap="round"/>
    <text x="147" y="154" fill="#0F172A" font-family="Inter, Arial, sans-serif" font-size="14" font-weight="800">Letters</text>
    <text x="147" y="176" fill="#64748B" font-family="Inter, Arial, sans-serif" font-size="12">Writing</text>
  </g>

  <g filter="url(#softShadow)">
    <rect x="506" y="120" width="150" height="78" rx="24" fill="white" stroke="#E2E8F0"/>
    <circle cx="545" cy="159" r="23" fill="#F43F5E" fill-opacity="0.12"/>
    <path d="M535 159c8-12 21-12 29 0" stroke="#F43F5E" stroke-width="5" stroke-linecap="round"/>
    <circle cx="538" cy="150" r="3" fill="#F43F5E"/>
    <circle cx="561" cy="150" r="3" fill="#F43F5E"/>
    <text x="581" y="152" fill="#0F172A" font-family="Inter, Arial, sans-serif" font-size="14" font-weight="800">Emotion</text>
    <text x="581" y="174" fill="#64748B" font-family="Inter, Arial, sans-serif" font-size="12">Adaptation</text>
  </g>

  <g filter="url(#softShadow)">
    <rect x="72" y="342" width="150" height="78" rx="24" fill="white" stroke="#E2E8F0"/>
    <circle cx="111" cy="381" r="23" fill="#F59E0B" fill-opacity="0.13"/>
    <path d="M103 389v-24M112 389v-31M121 389v-18" stroke="#F59E0B" stroke-width="5" stroke-linecap="round"/>
    <text x="147" y="374" fill="#0F172A" font-family="Inter, Arial, sans-serif" font-size="14" font-weight="800">Gesture</text>
    <text x="147" y="396" fill="#64748B" font-family="Inter, Arial, sans-serif" font-size="12">Numeracy</text>
  </g>

  <g filter="url(#softShadow)">
    <rect x="506" y="342" width="150" height="78" rx="24" fill="white" stroke="#E2E8F0"/>
    <circle cx="545" cy="381" r="23" fill="#10B981" fill-opacity="0.13"/>
    <path d="M535 381c8-17 20-17 29 0M531 392c11-8 28-8 39 0" stroke="#10B981" stroke-width="5" stroke-linecap="round"/>
    <text x="581" y="374" fill="#0F172A" font-family="Inter, Arial, sans-serif" font-size="14" font-weight="800">Speech</text>
    <text x="581" y="396" fill="#64748B" font-family="Inter, Arial, sans-serif" font-size="12">Feedback</text>
  </g>

  <path d="M222 171C252 171 250 204 238 209" stroke="#CBD5E1" stroke-width="4" stroke-linecap="round" stroke-dasharray="10 10"/>
  <path d="M460 209C482 204 482 170 506 166" stroke="#CBD5E1" stroke-width="4" stroke-linecap="round" stroke-dasharray="10 10"/>
  <path d="M222 383C253 383 249 350 238 345" stroke="#CBD5E1" stroke-width="4" stroke-linecap="round" stroke-dasharray="10 10"/>
  <path d="M460 345C483 350 482 383 506 383" stroke="#CBD5E1" stroke-width="4" stroke-linecap="round" stroke-dasharray="10 10"/>

  <g>
    <rect x="272" y="463" width="104" height="34" rx="17" fill="#0EA5E9" fill-opacity="0.11"/>
    <text x="324" y="485" text-anchor="middle" fill="#0284C7" font-family="Inter, Arial, sans-serif" font-size="13" font-weight="800">On-device AI</text>
  </g>
</svg>
